<svg width="152" height="71" viewBox="0 0 152 71" fill="none" xmlns="http://www.w3.org/2000/svg">
<path d="M19 12H0V31H19V12Z" fill="#3DBBED"/>
<path d="M19 34H0V53H19V34Z" fill="#F7D916"/>
<path d="M41 34H22V53H41V34Z" fill="#E82E87"/>
<path d="M51.493 17.6H44.708V11.7H64.768V17.6H57.983V53H51.493V17.6ZM77.0607 53.59C73.8747 53.59 71.4361 52.6853 69.7447 50.876C68.0534 49.0667 67.2077 46.51 67.2077 43.206V21.494C67.2077 18.19 68.0534 15.6333 69.7447 13.824C71.4361 12.0147 73.8747 11.11 77.0607 11.11C80.2467 11.11 82.6854 12.0147 84.3767 13.824C86.0681 15.6333 86.9137 18.19 86.9137 21.494V43.206C86.9137 46.51 86.0681 49.0667 84.3767 50.876C82.6854 52.6853 80.2467 53.59 77.0607 53.59ZM77.0607 47.69C79.3027 47.69 80.4237 46.333 80.4237 43.619V21.081C80.4237 18.367 79.3027 17.01 77.0607 17.01C74.8187 17.01 73.6977 18.367 73.6977 21.081V43.619C73.6977 46.333 74.8187 47.69 77.0607 47.69ZM96.1463 17.6H89.3613V11.7H109.421V17.6H102.636V53H96.1463V17.6ZM114.871 11.7H123.662L130.388 53H123.898L122.718 44.799V44.917H115.343L114.163 53H108.145L114.871 11.7ZM121.951 39.312L119.06 18.898H118.942L116.11 39.312H121.951ZM133.536 11.7H140.026V47.1H150.705V53H133.536V11.7Z" fill="#1A202C"/>
</svg>
