<svg width="375" height="317" viewBox="0 0 375 317" fill="none" xmlns="http://www.w3.org/2000/svg">
<path opacity="0.18" d="M170.905 5.32C133.896 7.31203 97.998 18.6667 66.5751 38.32C51.9051 47.62 38.0151 58.94 28.9051 73.75C19.7951 88.56 16.0251 107.32 21.9051 123.66C25.4151 133.37 32.0151 141.61 36.7251 150.79C41.4351 159.97 44.1451 171.27 39.4551 180.46C34.0751 191.1 21.0951 195.01 11.9051 202.67C-2.68491 214.81 -1.02491 225.77 3.90509 241.61C8.17509 255.45 15.0351 267.43 26.1651 276.89C47.9051 295.37 78.0051 301.08 105.335 305.62C144.935 312.2 185.535 313.92 225.395 308.62C244.905 306.04 263.115 300.62 282.025 295.85C300.505 291.22 319.125 285.44 334.885 274.4C353.643 261.259 366.906 241.673 372.144 219.378C377.382 197.082 374.229 173.639 363.285 153.52C347.525 124.52 317.625 105.82 299.455 78.31C288.775 62.15 282.345 43.24 269.905 28.43C258.475 15.01 228.315 9.73 211.965 7.19C203.768 5.93592 195.496 5.22438 187.205 5.06C181.775 4.94 176.335 5.01 170.905 5.32V5.32Z" fill="#A0A0A0"/>
<g clip-path="url(#clip0_1_29)">
<path d="M151.485 308.6L158.985 306.5L156.185 288.4L148.585 290.5L151.485 308.6Z" fill="#FFC3BD"/>
<path d="M86.9851 308.8H94.7851L96.7851 290.6H88.8851L86.9851 308.8Z" fill="#FFC3BD"/>
<path d="M95.4851 307.9H85.8851C85.5851 307.9 85.2851 308.1 85.1851 308.4L83.5851 315.4C83.3851 316.1 83.9851 316.8 84.7851 316.8C87.8851 316.7 90.0851 316.6 93.9851 316.6C96.3851 316.6 103.585 316.8 106.885 316.8C110.085 316.8 110.585 313.5 109.285 313.2C103.185 311.9 98.6851 310 96.6851 308.3C96.3851 308.1 95.8851 307.9 95.4851 307.9Z" fill="black"/>
<path d="M158.685 305.6L150.385 307.9C150.085 308 149.885 308.3 149.885 308.6L150.285 315.8C150.285 316.5 151.085 317.1 151.785 316.8C154.785 315.9 158.985 314.6 162.785 313.5C167.185 312.3 170.985 311.5 176.185 310.1C179.285 309.2 179.285 305.9 177.885 305.9C171.585 306.2 166.685 307.4 160.685 305.7C160.085 305.5 159.385 305.5 158.685 305.6Z" fill="black"/>
<path d="M129.985 62.6C130.285 63 130.785 63.5 131.185 64L132.485 65.4C133.285 66.3 134.185 67.3 135.085 68.2C136.885 70 138.685 71.8 140.585 73.4C144.385 76.6 148.485 79.4 152.385 80.6C152.885 80.8 153.385 80.9 153.885 81L154.585 81.1C154.985 81.2 154.585 81.1 154.585 81.2C154.485 81.2 154.685 81.3 154.985 81.1C155.285 81 155.685 80.8 156.185 80.6C157.085 80.1 158.085 79.5 158.985 78.8C159.985 78.1 160.985 77.3 161.885 76.5C165.785 73.2 169.685 69.4 173.485 65.6L178.185 69.1C175.385 74 172.185 78.6 168.385 83C166.385 85.2 164.385 87.3 161.585 89.3C160.885 89.8 160.085 90.3 159.185 90.7C158.285 91.1 157.185 91.6 155.685 91.8C154.985 91.9 153.885 91.9 153.585 91.8L152.285 91.7C151.385 91.6 150.585 91.4 149.685 91.2C147.985 90.8 146.385 90.3 144.985 89.7C143.485 89.1 142.085 88.4 140.685 87.6C137.985 86.1 135.485 84.3 133.085 82.5C130.785 80.6 128.585 78.7 126.485 76.6C125.485 75.6 124.485 74.5 123.485 73.4C122.985 72.9 122.485 72.3 122.085 71.7C121.585 71.1 121.185 70.6 120.685 69.9L129.985 62.6Z" fill="#FFC3BD"/>
<path d="M132.685 86.6L135.785 89.7L149.885 78.4L144.785 74.5L132.685 86.6Z" fill="#E82E87"/>
<path d="M116.185 66C115.585 73.5 132.485 88.8 132.485 88.8L147.385 75.9C147.385 75.9 141.085 69.2 134.085 62.6C129.285 57.9 116.885 57.9 116.185 66Z" fill="#263238"/>
<path d="M116.185 66C115.585 73.5 132.485 88.8 132.485 88.8L147.385 75.9C147.385 75.9 141.085 69.2 134.085 62.6C129.285 57.9 116.885 57.9 116.185 66Z" fill="#E82E87"/>
<path opacity="0.2" d="M137.685 84.3C137.585 83.6 137.385 82.9 137.185 82.2C135.285 76 130.785 70.5 123.885 69.8C120.785 69.5 119.785 71.7 120.085 74.9C124.885 81.7 132.585 88.7 132.585 88.7L133.885 87.6L135.885 89.6L138.285 87.7C138.085 86.6 137.985 85.5 137.685 84.3Z" fill="black"/>
<path d="M172.785 68.2L174.985 61.6L183.785 63.9C183.785 63.9 180.985 67.2 177.785 69.6L172.785 68.2Z" fill="#FFC3BD"/>
<path d="M178.485 58.7L185.785 61.3L183.885 63.8L174.985 61.6L178.485 58.7Z" fill="#FFC3BD"/>
<path opacity="0.2" d="M156.185 288.4L157.685 297.7L150.085 299.8L148.585 290.5L156.185 288.4Z" fill="black"/>
<path opacity="0.2" d="M88.8851 290.6H96.7851L95.7851 300H87.8851L88.8851 290.6Z" fill="black"/>
<path d="M84.2851 62.4C86.6851 71.1 88.2851 79.9 89.2851 88.3C89.9851 94.4 90.4851 100.2 90.7851 105.5C91.4851 117.9 91.1851 127.3 91.4851 130.5C97.5851 130.1 120.785 128.5 133.485 127.6C139.185 82.9 128.285 59.8 128.285 59.8C128.285 59.8 123.685 58.9 118.285 58.6C117.585 58.6 116.885 58.5 116.085 58.5C111.285 58.4 103.585 59.1 98.2851 59.7C97.1851 59.8 95.9851 60 94.8851 60.2C89.1851 61 84.2851 62.4 84.2851 62.4Z" fill="#263238"/>
<path d="M84.2851 62.4C86.6851 71.1 88.2851 79.9 89.2851 88.3C89.9851 94.4 90.4851 100.2 90.7851 105.5C91.4851 117.9 91.1851 127.3 91.4851 130.5C97.5851 130.1 120.785 128.5 133.485 127.6C139.185 82.9 128.285 59.8 128.285 59.8C128.285 59.8 123.685 58.9 118.285 58.6C117.585 58.6 116.885 58.5 116.085 58.5C111.285 58.4 103.585 59.1 98.2851 59.7C97.1851 59.8 95.9851 60 94.8851 60.2C89.1851 61 84.2851 62.4 84.2851 62.4Z" fill="#E82E87"/>
<path d="M123.985 85.5L114.785 86.1C114.485 86.1 114.285 85.9 114.185 85.6L114.085 85.2C113.985 84.8 113.485 84.6 113.185 84.8L108.385 88.9C108.085 89.1 108.185 89.6 108.485 89.7L114.685 93C115.085 93.2 115.485 92.9 115.385 92.5V92.1C115.385 91.8 115.485 91.6 115.785 91.6L124.985 91C125.285 91 125.485 90.7 125.385 90.5L124.585 86C124.585 85.7 124.285 85.5 123.985 85.5Z" fill="white"/>
<path d="M107.685 83.2L116.885 82.6C117.185 82.6 117.385 82.8 117.485 83.1L117.585 83.5C117.685 83.9 118.185 84.1 118.485 83.9L123.385 79.8C123.685 79.6 123.585 79.1 123.285 79L117.085 75.7C116.685 75.5 116.285 75.8 116.385 76.2L116.485 76.6C116.485 76.9 116.385 77.1 116.085 77.1L106.885 77.7C106.585 77.7 106.385 78 106.485 78.2L107.285 82.7C107.185 83 107.385 83.2 107.685 83.2Z" fill="white"/>
<path d="M98.1851 59.6C103.485 59 111.285 58.3 115.985 58.4C116.685 58.4 117.485 58.4 118.185 58.5C118.285 58.5 118.385 58.5 118.485 58.5C119.785 61.1 121.385 69 115.585 69.8C107.685 70.9 98.6851 64 94.8851 60.2C95.8851 59.9 97.0851 59.7 98.1851 59.6Z" fill="#E82E87"/>
<path opacity="0.2" d="M94.8851 73.7C94.8851 80.7 92.9851 86.7 89.6851 91.9C89.5851 90.7 89.3851 89.5 89.2851 88.3C88.6851 83.7 87.9851 79 87.0851 74.2L94.8851 73.7Z" fill="black"/>
<path d="M98.5851 39.4C100.085 45.1 101.985 55.5 98.1851 59.6C101.385 62.4 105.885 64.7 112.285 64.1C117.185 63.6 117.185 60.2 115.985 58.3C109.485 57.2 109.285 52.5 110.085 47.9L98.5851 39.4Z" fill="#FFC3BD"/>
<path opacity="0.2" d="M103.285 42.9L110.185 48C109.985 49.1 109.885 50.2 109.885 51.2C107.385 51 103.785 48.5 103.385 46C103.185 44.7 103.085 43.5 103.285 42.9Z" fill="black"/>
<path d="M127.385 9.50001C130.285 15.6 118.885 30.5 109.485 28.9C104.985 28.1 98.8851 26.5 93.8851 25.1C89.3851 23.8 87.6851 17.8 91.9851 17C106.685 14.4 122.585 -0.699986 127.385 9.50001Z" fill="black"/>
<path d="M97.2851 30.8C98.2851 38.5 98.4851 43.1 102.685 46.8C108.985 52.4 118.385 48.2 119.685 40.3C120.885 33.2 118.985 21.7 111.185 19.2C103.485 16.7 96.2851 23.1 97.2851 30.8Z" fill="#FFC3BD"/>
<path d="M112.285 40.7C109.085 40.9 107.485 38.8 107.385 38.7C107.285 38.6 107.385 38.5 107.385 38.4C107.485 38.3 107.585 38.4 107.685 38.4C107.685 38.4 109.285 40.4 112.185 40.2C112.285 40.2 112.385 40.3 112.385 40.4C112.485 40.6 112.485 40.7 112.285 40.7Z" fill="black"/>
<path d="M102.685 34.3C105.585 27.9 106.285 21.4 100.885 19.4C95.4851 17.4 90.9851 20.1 89.4851 24.1C88.0851 28.1 98.3851 43.6 102.685 34.3Z" fill="black"/>
<path d="M96.5851 22.1C101.985 26 120.385 26.2 117.785 19.3C115.885 14.1 103.085 14.3 96.5851 22.1Z" fill="black"/>
<path d="M94.3851 39.6C95.5851 41.3 97.4851 42.3 99.1851 42.5C101.785 42.9 102.685 40.5 101.685 38.2C100.785 36.2 98.3851 33.5 95.8851 34.2C93.5851 34.9 92.9851 37.7 94.3851 39.6Z" fill="#FFC3BD"/>
<path d="M159.985 295.2L147.185 298.7C147.185 298.7 131.085 248 127.185 220.2C126.185 212.8 124.485 202.4 122.085 191.4C118.985 177.5 115.085 162.4 111.885 150.6C108.485 138.2 105.985 129.4 105.985 129.4L133.585 127.5C133.585 127.5 148.485 192.6 150.085 216.5C151.585 241.4 159.985 295.2 159.985 295.2Z" fill="#407BFF"/>
<path d="M159.985 295.2L147.185 298.7C147.185 298.7 131.085 248 127.185 220.2C126.185 212.8 124.485 202.4 122.085 191.4C118.985 177.5 115.085 162.4 111.885 150.6C108.485 138.2 105.985 129.4 105.985 129.4L133.585 127.5C133.585 127.5 148.485 192.6 150.085 216.5C151.585 241.4 159.985 295.2 159.985 295.2Z" fill="#49BBEC"/>
<path opacity="0.2" d="M121.985 191.4C118.885 177.5 114.985 162.4 111.785 150.6L114.685 144.4C121.485 152.6 123.385 177.7 121.985 191.4Z" fill="black"/>
<path d="M118.585 128.5C118.585 128.5 115.585 195.8 112.285 218.6C108.685 243.6 99.3851 298.1 99.3851 298.1H84.9851C84.9851 298.1 84.7851 246.4 89.2851 222.2C94.3851 194.7 91.4851 130.4 91.4851 130.4L118.585 128.5Z" fill="#407BFF"/>
<path d="M118.585 128.5C118.585 128.5 115.585 195.8 112.285 218.6C108.685 243.6 99.3851 298.1 99.3851 298.1H84.9851C84.9851 298.1 84.7851 246.4 89.2851 222.2C94.3851 194.7 91.4851 130.4 91.4851 130.4L118.585 128.5Z" fill="#49BBEC"/>
<path d="M101.085 298.5H84.1851V293.4L103.085 293.1L101.085 298.5Z" fill="#3E98B7"/>
<path d="M160.885 295.3L146.385 299.3L144.285 294.3L160.885 289.7V295.3Z" fill="#3E98B7"/>
<path d="M110.063 33.1964C110.504 33.1657 110.827 32.6494 110.785 32.0433C110.743 31.4373 110.351 30.9709 109.91 31.0017C109.469 31.0325 109.146 31.5488 109.189 32.1548C109.231 32.7609 109.623 33.2272 110.063 33.1964Z" fill="black"/>
<path d="M117.163 32.6998C117.604 32.669 117.927 32.1528 117.885 31.5468C117.842 30.9407 117.451 30.4743 117.01 30.5051C116.569 30.5358 116.246 31.0521 116.289 31.6581C116.331 32.2642 116.722 32.7306 117.163 32.6998Z" fill="black"/>
<path d="M114.085 32.1C114.085 32.1 115.785 35.6 117.485 37.3C116.485 38.5 114.385 38 114.385 38L114.085 32.1Z" fill="#ED847E"/>
<path d="M106.785 30C106.885 30 107.085 30 107.185 29.8C108.085 28.4 109.485 28.4 109.485 28.4C109.685 28.4 109.885 28.2 109.885 28C109.885 27.8 109.685 27.6 109.485 27.6C109.385 27.6 107.685 27.6 106.585 29.3C106.485 29.5 106.485 29.7 106.685 29.8C106.685 30 106.785 30 106.785 30Z" fill="black"/>
<path d="M119.285 29C119.385 29 119.485 29 119.485 29C119.685 28.9 119.685 28.7 119.585 28.5C118.585 26.7 116.885 26.6 116.785 26.6C116.585 26.6 116.385 26.7 116.385 27C116.385 27.2 116.585 27.4 116.685 27.4C116.785 27.4 118.085 27.5 118.885 28.9C118.985 28.9 119.185 29 119.285 29Z" fill="black"/>
<path d="M98.0851 309.3C98.6851 309.3 99.2851 309.2 99.5851 308.9C99.8851 308.7 99.9851 308.3 99.9851 307.9C99.9851 307.6 99.7851 307.4 99.6851 307.4C98.7851 307 96.2851 308.5 95.9851 308.7C95.8851 308.7 95.8851 308.8 95.8851 308.9C95.8851 309 95.9851 309 95.9851 309.1C96.5851 309.1 97.2851 309.3 98.0851 309.3ZM99.1851 307.6C99.2851 307.6 99.3851 307.6 99.3851 307.6C99.3851 307.6 99.4851 307.7 99.4851 307.8C99.4851 308.1 99.3851 308.3 99.1851 308.5C98.7851 308.9 97.6851 308.9 96.3851 308.6C97.3851 308.2 98.5851 307.6 99.1851 307.6Z" fill="#49BBEC"/>
<path d="M96.0851 309C96.9851 308.5 98.5851 306.8 98.3851 305.9C98.3851 305.7 98.2851 305.5 97.7851 305.4C97.4851 305.4 97.1851 305.4 96.9851 305.6C96.0851 306.3 95.8851 308.6 95.8851 308.7C95.8851 308.8 95.8851 308.8 95.9851 308.9C95.9851 309 95.9851 309 96.0851 309ZM97.5851 305.8C97.6851 305.8 97.6851 305.8 97.5851 305.8C97.8851 305.8 97.8851 305.9 97.9851 306C98.0851 306.5 97.0851 307.8 96.2851 308.4C96.3851 307.7 96.5851 306.4 97.1851 305.9C97.3851 305.8 97.4851 305.8 97.5851 305.8Z" fill="#49BBEC"/>
<path d="M159.785 306.5C161.085 306.4 163.385 306.1 163.985 305.1C164.185 304.8 164.185 304.5 164.085 304.1C163.985 303.9 163.885 303.8 163.685 303.7C162.585 303.5 159.985 305.8 159.685 306.1C159.585 306.2 159.585 306.2 159.685 306.3C159.585 306.4 159.685 306.5 159.785 306.5ZM163.485 304.1C163.585 304.1 163.685 304.2 163.685 304.3C163.785 304.5 163.785 304.7 163.585 304.9C163.185 305.4 161.985 305.9 160.285 306C161.385 305.2 162.885 304.1 163.485 304.1Z" fill="#49BBEC"/>
<path d="M159.785 306.5H159.885C160.685 305.8 162.085 303.7 161.685 302.9C161.585 302.7 161.385 302.5 160.885 302.6C160.485 302.7 160.185 302.9 159.985 303.2C159.285 304.3 159.585 306.4 159.585 306.4C159.585 306.4 159.685 306.5 159.785 306.5C159.785 306.5 159.685 306.5 159.785 306.5ZM161.185 302.9C161.285 302.9 161.385 303 161.385 303C161.585 303.5 160.685 305.1 159.985 305.9C159.885 305.3 159.885 304 160.385 303.3C160.585 303.1 160.785 302.9 161.085 302.9C160.985 302.9 161.085 302.9 161.185 302.9Z" fill="#49BBEC"/>
<path d="M84.0851 127.8C83.9851 126.1 82.7851 124.7 81.2851 124.5L57.8851 121.9C56.0851 121.7 54.4851 123.2 54.2851 125.3L47.3851 186.1C47.1851 188.2 48.3851 190 50.1851 190.2L124.485 198.6C126.285 198.8 127.885 197.3 128.085 195.2L133.885 144.1C134.085 142 132.885 140.2 131.085 140L90.6851 135.4C87.1851 135.1 84.4851 131.9 84.0851 127.8Z" fill="#776923"/>
<path d="M93.9851 141.2C94.0851 139.7 93.0851 138.5 91.5851 138.3L68.1851 135.7C66.3851 135.5 64.4851 136.8 63.9851 138.6L49.1851 186.7C48.5851 188.5 49.5851 190.1 51.3851 190.3L125.685 198.7C127.485 198.9 129.385 197.6 129.885 195.8L142.085 156.1C142.685 154.3 141.685 152.7 139.885 152.5L99.4851 147.9C95.9851 147.5 93.6851 144.7 93.9851 141.2Z" fill="#F7D916"/>
<path d="M92.7851 73.9L90.4851 77C89.7851 78.1 88.9851 79.2 88.2851 80.3C86.8851 82.5 85.4851 84.7 84.0851 87C82.7851 89.2 81.4851 91.5 80.2851 93.8C79.1851 96.1 78.0851 98.4 77.1851 100.7L77.0851 100.9V101C77.0851 101.1 77.0851 101.1 76.9851 101.2C76.9851 101.4 76.8851 101.5 76.8851 101.7C76.7851 102.1 76.7851 102.6 76.6851 103.2C76.5851 104.3 76.5851 105.5 76.6851 106.7C76.7851 109.2 77.0851 111.8 77.4851 114.4C78.3851 119.6 79.3851 125 80.3851 130.3L74.7851 132.2C72.3851 127 70.4851 121.8 68.8851 116.3C68.0851 113.6 67.3851 110.8 66.8851 107.8C66.6851 106.3 66.4851 104.8 66.3851 103.1C66.3851 102.3 66.3851 101.4 66.4851 100.5C66.4851 100 66.5851 99.5 66.6851 99L66.8851 98.2L66.9851 97.8L67.0851 97.5C68.7851 91.6 71.1851 86.3 73.8851 81.3C75.2851 78.8 76.6851 76.3 78.2851 73.9C79.0851 72.7 79.8851 71.5 80.6851 70.3C81.4851 69.1 82.2851 68 83.2851 66.8L92.7851 73.9Z" fill="#FFC3BD"/>
<path d="M71.9851 80.9L69.4851 84.5L82.8851 96.5L85.8851 90.9L71.9851 80.9Z" fill="#E82E87"/>
<path d="M84.2851 62.4C76.8851 63.8 70.3851 81.9 70.3851 81.9L85.7851 94.4C85.7851 94.4 90.7851 85.2 94.8851 76.4C99.2851 66.8 93.1851 60.6 84.2851 62.4Z" fill="#263238"/>
<path d="M84.2851 62.4C76.8851 63.8 70.3851 81.9 70.3851 81.9L85.7851 94.4C85.7851 94.4 90.7851 85.2 94.8851 76.4C99.2851 66.8 93.1851 60.6 84.2851 62.4Z" fill="#E82E87"/>
<path d="M79.5851 128.7L84.8851 134.7L75.2851 137.6C75.2851 137.6 71.8851 131.5 74.8851 129.4L79.5851 128.7Z" fill="#FFC3BD"/>
<path d="M85.3851 141.2L77.2851 143.3L75.2851 137.6L84.8851 134.7L85.3851 141.2Z" fill="#FFC3BD"/>
<path d="M265.485 34.3C264.985 32.6 263.485 31.6 261.985 31.7L238.585 34.4C236.785 34.6 235.585 36.5 235.785 38.5L242.785 99.3C242.985 101.4 244.685 102.9 246.385 102.7L320.585 94.2C322.385 94 323.585 92.1 323.385 90.1L317.485 39.1C317.285 37 315.585 35.5 313.885 35.7L273.485 40.3C270.085 40.7 266.685 38.2 265.485 34.3Z" fill="#776923"/>
<path d="M276.685 12.1C281.785 34.5 285.185 57.5 286.585 80.9C268.185 83.1 249.685 84.8 231.285 86.1C229.885 60.4 225.785 35.3 219.385 11.2C232.385 7.8 245.385 4 258.285 0C264.485 3.9 270.685 7.9 276.685 12.1Z" fill="#3DBBED"/>
<path opacity="0.7" d="M276.685 12.1C281.785 34.5 285.185 57.5 286.585 80.9C268.185 83.1 249.685 84.8 231.285 86.1C229.885 60.4 225.785 35.3 219.385 11.2C232.385 7.8 245.385 4 258.285 0C264.485 3.9 270.685 7.9 276.685 12.1Z" fill="white"/>
<path d="M273.585 23.7C259.185 27.3 244.685 30.6 230.185 33.6C229.585 33.7 228.985 33.3 228.785 32.7C228.685 32.1 229.085 31.4 229.685 31.3C244.185 28.2 258.585 24.8 272.985 21.1C273.585 20.9 274.185 21.4 274.385 22.1C274.585 22.9 274.185 23.6 273.585 23.7Z" fill="#3DBBED"/>
<path d="M275.185 31.9C260.685 35.2 246.185 38.3 231.585 41C230.985 41.1 230.385 40.7 230.285 40C230.185 39.4 230.585 38.7 231.185 38.6C245.685 35.8 260.185 32.6 274.685 29.2C275.285 29.1 275.885 29.5 276.085 30.2C276.185 31 275.785 31.7 275.185 31.9Z" fill="#3DBBED"/>
<path d="M276.585 40C261.985 43.1 247.485 45.8 232.885 48.3C232.285 48.4 231.685 48 231.585 47.3C231.485 46.7 231.885 46 232.585 45.9C247.185 43.3 261.785 40.5 276.285 37.3C276.885 37.2 277.485 37.6 277.685 38.4C277.585 39.2 277.185 39.9 276.585 40Z" fill="#3DBBED"/>
<path d="M277.785 48.3C263.185 51.1 248.585 53.6 233.885 55.8C233.285 55.9 232.685 55.4 232.585 54.8C232.485 54.2 232.885 53.5 233.585 53.4C248.185 51.1 262.885 48.5 277.385 45.7C277.985 45.6 278.585 46.1 278.685 46.8C278.885 47.4 278.385 48.1 277.785 48.3Z" fill="#3DBBED"/>
<path d="M261.385 59.4C252.585 60.8 243.685 62 234.885 63.2C234.285 63.3 233.685 62.8 233.585 62.2C233.485 61.5 233.985 60.9 234.585 60.9C243.385 59.7 252.285 58.4 261.085 57C261.685 56.9 262.285 57.4 262.385 58.1C262.485 58.6 261.985 59.3 261.385 59.4Z" fill="#3DBBED"/>
<path d="M276.685 12.1C271.885 13.5 267.085 14.8 262.185 16.1C260.985 10.7 259.585 5.3 258.185 0C264.485 3.9 270.685 7.9 276.685 12.1Z" fill="#3DBBED"/>
<path d="M278.085 45.1C277.885 43.6 276.685 42.6 275.185 42.8L251.785 45.5C249.985 45.7 248.485 47.4 248.285 49.3L244.685 99.6C244.585 101.5 245.885 102.8 247.685 102.6L321.885 94.1C323.685 93.9 325.185 92.2 325.385 90.3L328.385 48.9C328.485 47 327.185 45.7 325.385 45.9L284.985 50.5C281.485 50.8 278.585 48.6 278.085 45.1Z" fill="#F7D916"/>
<path d="M221.285 84.1C219.185 104.8 216.685 125.4 213.585 145.9C195.285 143 177.085 140.2 158.785 137.5C162.385 112.9 165.385 88.1 167.585 63.2C180.985 64.4 194.485 65.7 207.885 67C212.385 72.6 216.785 78.3 221.285 84.1Z" fill="#3DBBED"/>
<path opacity="0.7" d="M221.285 84.1C219.185 104.8 216.685 125.4 213.585 145.9C195.285 143 177.085 140.2 158.785 137.5C162.385 112.9 165.385 88.1 167.585 63.2C180.985 64.4 194.485 65.7 207.885 67C212.385 72.6 216.785 78.3 221.285 84.1Z" fill="white"/>
<path d="M214.785 92.8C200.085 91.1 185.385 89.4 170.685 87.8C170.085 87.7 169.585 87.2 169.685 86.5C169.785 85.9 170.285 85.4 170.985 85.5C185.685 87.1 200.385 88.7 215.085 90.4C215.685 90.5 216.185 91.1 216.085 91.7C215.985 92.4 215.485 92.9 214.785 92.8Z" fill="#3DBBED"/>
<path d="M213.985 100.3C199.285 98.5 184.585 96.7 169.885 95C169.285 94.9 168.785 94.3 168.885 93.7C168.985 93.1 169.485 92.6 170.185 92.7C184.885 94.4 199.585 96.1 214.285 97.9C214.885 98 215.385 98.6 215.285 99.2C215.185 99.9 214.585 100.4 213.985 100.3Z" fill="#3DBBED"/>
<path d="M213.085 107.8C198.385 105.9 183.685 104.1 168.985 102.3C168.385 102.2 167.885 101.6 167.985 101C168.085 100.4 168.685 99.9 169.285 100C183.985 101.7 198.685 103.6 213.385 105.4C213.985 105.5 214.485 106.1 214.385 106.7C214.285 107.4 213.785 107.9 213.085 107.8Z" fill="#3DBBED"/>
<path d="M212.185 115.3C197.485 113.3 182.785 111.4 168.185 109.5C167.585 109.4 167.085 108.8 167.185 108.2C167.285 107.6 167.885 107.1 168.485 107.2C183.185 109 197.885 110.9 212.485 112.9C213.085 113 213.585 113.6 213.485 114.2C213.385 114.9 212.785 115.4 212.185 115.3Z" fill="#3DBBED"/>
<path d="M193.785 120.3C184.985 119.1 176.085 117.9 167.285 116.7C166.685 116.6 166.185 116 166.285 115.4C166.385 114.8 166.985 114.3 167.585 114.4C176.385 115.6 185.285 116.7 194.085 117.9C194.685 118 195.185 118.6 195.085 119.2C194.985 119.9 194.385 120.4 193.785 120.3Z" fill="#3DBBED"/>
<path d="M221.285 84.1C216.385 83.5 211.385 83 206.485 82.5C206.985 77.4 207.485 72.2 207.985 67.1C212.385 72.6 216.785 78.3 221.285 84.1Z" fill="#3DBBED"/>
</g>
<defs>
<clipPath id="clip0_1_29">
<rect width="281" height="316.9" fill="white" transform="translate(47.3851)"/>
</clipPath>
</defs>
</svg>
