<svg width="379" height="328" viewBox="0 0 379 328" fill="none" xmlns="http://www.w3.org/2000/svg">
<path opacity="0.18" d="M373.485 206.25C369.593 193.836 363.643 182.164 355.885 171.72C343.375 154.9 326.595 141.01 317.555 122.1C288.075 60.46 247.925 0.960024 172.635 0.900024C102.705 0.900024 81.1854 54.6 77.0654 62.49C67.0654 81.64 68.1953 104.57 62.1753 125.32C53.7853 154.21 32.2653 177.01 14.6153 201.32C8.35535 209.96 2.38535 219.26 0.615348 229.78C-0.464652 236.22 0.0853481 242.78 0.685348 249.32C2.15535 265.23 9.68535 274.47 16.4553 287.95C23.0825 301.154 33.6878 311.945 46.7753 318.8C70.2153 330.89 103.945 326.49 129.145 322.08C159.695 316.74 188.735 304.47 220.275 305.86C239.281 306.731 258.177 309.23 276.755 313.33C289.315 316.11 298.635 322.25 311.905 320.44C339.335 316.69 363.675 294.5 373.045 269.01C380.415 248.96 379.895 226.78 373.485 206.25Z" fill="#A0A0A0"/>
<g clip-path="url(#clip0_1_124)">
<path d="M308.464 205.957L307.173 229.522L308.171 229.576L309.463 206.012L308.464 205.957Z" fill="#3DBBED"/>
<path d="M309.528 186.081L308.866 198.163L309.865 198.218L310.527 186.136L309.528 186.081Z" fill="#3DBBED"/>
<path d="M288.5 274.4H171.3C163.8 274.4 157.9 268.2 158.4 260.7L171.9 14.6C172.2 7.10002 178.7 0.900024 186.3 0.900024H303.5C311 0.900024 316.9 7.10002 316.4 14.6L302.9 260.7C302.5 268.3 296 274.4 288.5 274.4Z" fill="#3DBBED"/>
<path opacity="0.8" d="M281.4 274.4H171.3C163.8 274.4 157.9 268.2 158.4 260.7L171.9 14.6C172.2 7.10002 178.7 0.900024 186.3 0.900024H296.4C303.9 0.900024 309.8 7.10002 309.3 14.6L295.8 260.7C295.4 268.3 288.9 274.4 281.4 274.4Z" fill="white"/>
<path d="M226.8 45.5H195.2C192 45.5 189.6 42.9 189.7 39.7C189.9 36.5 192.6 33.9 195.8 33.9H227.4C230.6 33.9 233 36.5 232.9 39.7C232.7 42.9 230 45.5 226.8 45.5Z" fill="white"/>
<path d="M232.9 39.7C232.6 45.5 227.7 50.1 221.9 50.1C216.1 50.1 211.7 45.4 212.1 39.7C212.5 34 217.3 29.3 223.1 29.3C228.8 29.3 233.2 34 232.9 39.7Z" fill="#3DBBED"/>
<path d="M224.8 82.5H193.2C190 82.5 187.6 79.9 187.7 76.7C187.9 73.5 190.6 70.9 193.8 70.9H225.4C228.6 70.9 231 73.5 230.9 76.7C230.7 79.9 228 82.5 224.8 82.5Z" fill="white"/>
<path d="M216.9 76.7C216.6 82.5 211.7 87.1 205.9 87.1C200.1 87.1 195.7 82.4 196.1 76.7C196.4 70.9 201.3 66.3 207.1 66.3C212.9 66.3 217.2 71 216.9 76.7Z" fill="#3DBBED"/>
<path opacity="0.3" d="M216.9 76.7C216.6 82.5 211.7 87.1 205.9 87.1C200.1 87.1 195.7 82.4 196.1 76.7C196.4 70.9 201.3 66.3 207.1 66.3C212.9 66.3 217.2 71 216.9 76.7Z" fill="#FAFAFA"/>
<path d="M189.1 156.5H220.7C223.9 156.5 226.6 153.9 226.8 150.7C227 147.5 224.5 144.9 221.3 144.9H189.7C186.5 144.9 183.8 147.5 183.6 150.7C183.4 153.9 185.9 156.5 189.1 156.5Z" fill="white"/>
<path d="M183.6 150.8C183.3 156.6 187.7 161.2 193.4 161.2C199.2 161.2 204.1 156.5 204.4 150.8C204.7 145 200.3 140.4 194.6 140.4C188.9 140.3 183.9 145 183.6 150.8Z" fill="#3DBBED"/>
<path opacity="0.7" d="M183.6 150.8C183.3 156.6 187.7 161.2 193.4 161.2C199.2 161.2 204.1 156.5 204.4 150.8C204.7 145 200.3 140.4 194.6 140.4C188.9 140.3 183.9 145 183.6 150.8Z" fill="#FAFAFA"/>
<path d="M218.7 193.6H187.1C183.9 193.6 181.5 191 181.6 187.8C181.8 184.6 184.5 182 187.7 182H219.3C222.5 182 224.9 184.6 224.8 187.8C224.6 191 221.9 193.6 218.7 193.6Z" fill="white"/>
<path d="M224.8 187.8C224.5 193.6 219.6 198.2 213.8 198.2C208 198.2 203.6 193.5 204 187.8C204.3 182 209.2 177.4 215 177.4C220.7 177.4 225.1 182 224.8 187.8Z" fill="#3DBBED"/>
<path d="M191.1 119.5H222.7C225.9 119.5 228.6 116.9 228.8 113.7C229 110.5 226.5 107.9 223.3 107.9H191.7C188.5 107.9 185.8 110.5 185.6 113.7C185.5 116.9 187.9 119.5 191.1 119.5Z" fill="white"/>
<path d="M185.7 113.8C185.4 119.6 189.8 124.2 195.5 124.2C201.3 124.2 206.2 119.5 206.5 113.8C206.8 108 202.4 103.4 196.7 103.4C190.9 103.3 186 108 185.7 113.8Z" fill="#3DBBED"/>
<path opacity="0.7" d="M185.7 113.8C185.4 119.6 189.8 124.2 195.5 124.2C201.3 124.2 206.2 119.5 206.5 113.8C206.8 108 202.4 103.4 196.7 103.4C190.9 103.3 186 108 185.7 113.8Z" fill="#FAFAFA"/>
<path d="M296.1 38H249.2C247.9 38 246.9 37 247 35.7C247.1 34.4 248.2 33.4 249.4 33.4H296.3C297.6 33.4 298.6 34.4 298.5 35.7C298.5 37 297.4 38 296.1 38Z" fill="white"/>
<path d="M280.5 46.1H248.8C247.5 46.1 246.5 45.1 246.6 43.8C246.7 42.5 247.8 41.5 249 41.5H280.7C282 41.5 283 42.5 282.9 43.8C282.8 45.1 281.7 46.1 280.5 46.1Z" fill="white"/>
<path d="M282 186H241C239.7 186 238.7 185 238.8 183.7C238.9 182.4 240 181.4 241.2 181.4H282.2C283.5 181.4 284.5 182.4 284.4 183.7C284.4 185 283.3 186 282 186Z" fill="white"/>
<path d="M260.9 194.1H240.7C239.4 194.1 238.4 193.1 238.5 191.8C238.6 190.5 239.7 189.5 240.9 189.5H261.1C262.4 189.5 263.4 190.5 263.3 191.8C263.3 193.1 262.2 194.1 260.9 194.1Z" fill="white"/>
<path d="M293.9 78.5H247C245.7 78.5 244.6 79.5 244.6 80.8C244.5 82.1 245.5 83.1 246.8 83.1H293.7C295 83.1 296.1 82.1 296.1 80.8C296.1 79.5 295.1 78.5 293.9 78.5Z" fill="white"/>
<path d="M279.1 70.4H247.4C246.1 70.4 245 71.4 245 72.7C244.9 74 245.9 75 247.2 75H278.9C280.2 75 281.3 74 281.3 72.7C281.4 71.4 280.4 70.4 279.1 70.4Z" fill="white"/>
<path d="M269.2 112H245.2C243.9 112 242.9 111 243 109.7C243.1 108.4 244.2 107.4 245.4 107.4H269.4C270.7 107.4 271.7 108.4 271.6 109.7C271.6 111 270.5 112 269.2 112Z" fill="white"/>
<path d="M292 112H277.8C276.5 112 275.5 111 275.6 109.7C275.7 108.4 276.8 107.4 278 107.4H292.2C293.5 107.4 294.5 108.4 294.4 109.7C294.4 111 293.3 112 292 112Z" fill="white"/>
<path d="M276.4 120.1H244.7C243.4 120.1 242.4 119.1 242.5 117.8C242.6 116.5 243.7 115.5 244.9 115.5H276.6C277.9 115.5 278.9 116.5 278.8 117.8C278.8 119.1 277.7 120.1 276.4 120.1Z" fill="white"/>
<path d="M236.7 226.6H182.7C180.9 226.6 179.5 225.1 179.6 223.4C179.7 221.6 181.2 220.2 183 220.2H237C238.8 220.2 240.2 221.7 240.1 223.4C240 225.1 238.5 226.6 236.7 226.6Z" fill="white"/>
<path d="M284.8 226.6H251.7C249.9 226.6 248.5 225.1 248.6 223.4C248.7 221.6 250.2 220.2 252 220.2H285.1C286.9 220.2 288.3 221.7 288.2 223.4C288.1 225.1 286.6 226.6 284.8 226.6Z" fill="white"/>
<path d="M223.2 237.9H182.1C180.3 237.9 178.9 236.4 179 234.7C179.1 232.9 180.6 231.5 182.4 231.5H223.5C225.3 231.5 226.7 233 226.6 234.7C226.5 236.5 225 237.9 223.2 237.9Z" fill="white"/>
<path d="M267.8 249.3H181.5C179.7 249.3 178.3 247.8 178.4 246.1C178.5 244.3 180 242.9 181.8 242.9H268.1C269.9 242.9 271.3 244.4 271.2 246.1C271.1 247.8 269.6 249.3 267.8 249.3Z" fill="white"/>
<path d="M256.8 152.5H242.9C241.6 152.5 240.5 153.5 240.5 154.8C240.4 156.1 241.4 157.1 242.7 157.1H256.6C257.9 157.1 259 156.1 259 154.8C259.1 153.5 258.1 152.5 256.8 152.5Z" fill="white"/>
<path d="M281.6 152.5H265.5C264.2 152.5 263.1 153.5 263.1 154.8C263 156.1 264 157.1 265.3 157.1H281.4C282.7 157.1 283.8 156.1 283.8 154.8C283.8 153.5 282.8 152.5 281.6 152.5Z" fill="white"/>
<path d="M275.1 144.4H243.4C242.1 144.4 241 145.4 241 146.7C240.9 148 241.9 149 243.2 149H274.9C276.2 149 277.3 148 277.3 146.7C277.3 145.4 276.4 144.4 275.1 144.4Z" fill="white"/>
<path d="M99.6 85C96.3 87.7 93 90.7 89.8 93.6C88.2 95.1 86.7 96.6 85.3 98.2C83.9 99.7 82.6 101.3 81.6 102.9L81.4 103.2L81.3 103.4C81.2 103.5 81.2 103.7 81.1 103.8C81 104.1 80.8 104.5 80.7 104.9C80.4 105.7 80.2 106.7 80.1 107.7C79.8 109.7 79.6 111.8 79.5 114C79.3 118.3 79.3 122.8 79.4 127.2L74.7 127.9C73.5 123.4 72.7 118.8 72.3 114.1C72.1 111.7 72 109.3 72.1 106.8C72.2 105.5 72.3 104.3 72.6 102.9C72.7 102.2 72.9 101.5 73.2 100.8C73.3 100.4 73.5 100.1 73.7 99.6L74 99C74.1 98.8 74.2 98.7 74.2 98.5C75.5 96.1 76.9 94.2 78.5 92.3C80 90.4 81.6 88.6 83.3 86.9C86.6 83.5 90 80.4 93.8 77.5L99.6 85Z" fill="#B55B52"/>
<path d="M97.9 73C92.8 76 85 83.8 85 83.8L94.5 95.2C94.5 95.2 108 87.1 109.6 82.7C112.4 75.2 102.8 70.2 97.9 73Z" fill="#E82E87"/>
<path d="M79.2 125.5L80.4 132.3L74.1 131.4C74.1 131.4 72.8 126.8 76.1 125.2L79.2 125.5Z" fill="#B55B52"/>
<path d="M78.1 136.4L72.4 134.6L74.1 131.3L80.4 132.2L78.1 136.4Z" fill="#B55B52"/>
<path d="M136 49.1C136 49.8 136.4 50.4 136.8 50.4C137.3 50.4 137.6 49.9 137.6 49.2C137.6 48.5 137.2 47.9 136.8 47.9C136.3 47.9 136 48.4 136 49.1Z" fill="black"/>
<path d="M136.6 47.9L138.3 47.4C138.3 47.5 137.4 48.8 136.6 47.9Z" fill="black"/>
<path d="M136.6 49.8C136.6 49.8 137.8 52.8 139.1 54.2C138.2 55 136.6 54.6 136.6 54.6V49.8Z" fill="#A02724"/>
<path d="M136.9 44.5C136.8 44.5 136.8 44.5 136.7 44.5C135 43.9 133.8 44.8 133.7 44.8C133.5 44.9 133.3 44.9 133.1 44.7C133 44.5 133 44.3 133.2 44.1C133.3 44.1 134.8 42.9 136.9 43.6C137.1 43.7 137.2 43.9 137.2 44.1C137.1 44.4 137 44.5 136.9 44.5Z" fill="black"/>
<path d="M115.6 56.5C116.1 61.7 114.3 70.1 110.4 73C110.4 73 113.3 78.4 122.8 79.7C133.2 81.1 128.3 75.3 128.3 75.3C122.8 73.2 123.4 69.1 124.8 65.3L115.6 56.5Z" fill="#B55B52"/>
<path d="M134 79.3C138.9 80.6 144.1 81.9 149.2 83.1C151.8 83.7 154.3 84.2 156.9 84.7C159.5 85.1 162 85.6 164.6 85.9L165.6 86L166.3 86.1C166.8 86.1 167.3 86.1 167.8 86.1C168.9 86 170.1 85.9 171.3 85.6C173.7 85.1 176.2 84.5 178.6 83.7C183.5 82.2 188.5 80.3 193.4 78.4L195.6 82.6C191 85.6 186.2 88.2 181.1 90.5C178.5 91.6 175.9 92.7 173.1 93.5C171.7 93.9 170.2 94.3 168.7 94.5C167.9 94.6 167.1 94.7 166.2 94.7C165.8 94.7 165.3 94.7 164.8 94.7L163.8 94.6C158.2 94.2 152.8 93.5 147.4 92.4C142 91.4 136.7 90.1 131.4 88.5L134 79.3Z" fill="#B55B52"/>
<path d="M192 80L193.4 75.1L198.7 77.1C198.7 77.1 197.5 84.5 192.9 82.4L192 80Z" fill="#B55B52"/>
<path d="M196.6 71.8L202 72.4L198.8 77.1L193.5 75.1L196.6 71.8Z" fill="#B55B52"/>
<path d="M100.3 318.8L108.9 319.4L111.4 299.7L102.9 299.1L100.3 318.8Z" fill="#B55B52"/>
<path d="M37.1 280.6L42.9 287.1L59.2 275.8L53.4 269.4L37.1 280.6Z" fill="#B55B52"/>
<path d="M47.2 290.7C47.1 290.7 47 290.7 46.9 290.6C45.9 290.3 45.1 288.3 44.8 287.2C44.8 287.1 44.8 287 44.9 287C45 286.9 45.1 286.9 45.1 287C45.4 287.2 48.2 288.7 48.3 289.8C48.3 290 48.2 290.3 48 290.4C47.8 290.6 47.5 290.7 47.2 290.7ZM45.4 287.7C45.9 289.2 46.5 290.1 47.1 290.3C47.3 290.4 47.6 290.3 47.8 290.1C47.9 290 47.9 289.9 47.9 289.8C47.9 289.3 46.5 288.3 45.4 287.7Z" fill="#3DBBED"/>
<path d="M47.6 288.1C46.6 288.1 45.5 287.8 45 287.5C44.9 287.5 44.9 287.4 44.9 287.3C44.9 287.2 44.9 287.2 45 287.1C45.1 287 47.2 285.9 48.4 286.3C48.7 286.4 48.9 286.6 49.1 286.9C49.3 287.4 49.1 287.7 48.9 287.8C48.6 288 48.1 288.1 47.6 288.1ZM45.5 287.2C46.5 287.6 48.1 287.8 48.6 287.4C48.7 287.3 48.7 287.2 48.6 287C48.5 286.8 48.4 286.7 48.2 286.6C47.5 286.4 46.2 286.9 45.5 287.2Z" fill="#3DBBED"/>
<path d="M45.5 286.1L40.7 277.6C40.5 277.3 40.2 277.2 39.9 277.3L32.8 280C32.1 280.3 31.8 281.2 32.2 282C33.9 284.9 34.9 286.3 37 290C38.3 292.3 40.3 297.3 41.8 300.6C43.3 303.8 46.6 302.6 46.2 301.1C44.6 294.3 45.2 290.5 45.7 287.6C45.9 287.1 45.8 286.6 45.5 286.1Z" fill="black"/>
<path d="M112.6 319.7C111.7 319.7 110.6 319.5 109.9 319.4C109.8 319.4 109.8 319.3 109.7 319.2C109.7 319.1 109.7 319 109.8 319C110.2 318.8 113.7 317 114.7 317.6C114.9 317.7 115 317.9 115 318.1C115 318.5 114.9 318.8 114.6 319.1C114.3 319.6 113.5 319.7 112.6 319.7ZM110.6 319.1C112.5 319.4 113.9 319.3 114.4 318.9C114.6 318.7 114.7 318.5 114.7 318.2C114.7 318.1 114.7 318 114.6 318C114 317.7 112 318.4 110.6 319.1Z" fill="#3DBBED"/>
<path d="M110 319.4H109.9C109.8 319.4 109.8 319.3 109.8 319.2C109.8 319 110.2 315.5 112.1 315.5C112.2 315.5 112.2 315.5 112.3 315.5C112.9 315.6 113 315.8 113.1 316.1C113.2 317 111.1 318.9 110 319.4ZM112.1 315.9C110.9 315.9 110.4 317.9 110.2 318.8C111.3 318.2 112.7 316.7 112.6 316.1C112.6 316.1 112.6 315.9 112.2 315.9H112.1Z" fill="#3DBBED"/>
<path d="M109.4 318.2H99.8C99.4 318.2 99.2 318.4 99.1 318.8L97.8 326.4C97.7 327.2 98.3 327.9 99.1 327.9C102.5 327.8 104.1 327.6 108.3 327.6C110.9 327.6 116.3 327.9 119.9 327.9C123.4 327.9 123.8 324.3 122.3 324C115.6 322.6 113 320.6 110.8 318.7C110.4 318.4 109.9 318.2 109.4 318.2Z" fill="black"/>
<path opacity="0.2" d="M111.4 299.7L110 310.7L101.5 309.2L102.9 299.1L111.4 299.7Z" fill="black"/>
<path opacity="0.2" d="M53.4 269.4L59.2 275.8L52.5 280.5L46.4 274.2L53.4 269.4Z" fill="black"/>
<path d="M96 124.6C102.7 125.5 116.9 127.4 130.7 129.3C144.2 80.6 140.2 79.3 140.2 79.3C140.2 79.3 136.6 77.6 132.2 76.1C132 76 131.9 76 131.7 76C129.5 75.3 129 75.2 126 74.5C120.9 73.6 116.1 72.9 110.2 72.4C109.8 72.4 109.4 72.3 109.1 72.3C108 72.2 107 72.2 106 72.1C105.3 72.1 104.6 72.1 104 72.1C103.2 72.1 102.5 72.1 101.8 72.1C101.4 72.1 101 72.1 100.6 72.1C97.8 72.2 95.6 74.6 95.9 77.5C98.9 103.1 97.9 111.5 96 124.6Z" fill="#E82E87"/>
<path opacity="0.2" d="M131.7 90.3C131.9 92.6 137.2 96.7 139 95.6C139.5 92.9 139.9 90.6 140.2 88.8C137.5 88.5 132.4 85.6 131.7 90.3Z" fill="black"/>
<path d="M126 78.9C125.7 70.9 145.1 79.7 149.6 81.7L144.7 95.1C144.7 95.1 138.2 94.9 134.1 92.5C129.8 90 126.2 84.7 126 78.9Z" fill="#E82E87"/>
<path d="M112.7 46.9C113.3 55.4 113.4 58.9 117.8 63.3C124.4 69.9 134.7 67.6 136.6 59.2C138.3 51.6 137 39.1 128.6 35.6C120.3 32.2 112.1 38.5 112.7 46.9Z" fill="#B55B52"/>
<path d="M113.4 38C104.9 35.9 104.6 43 104.8 46.8C105 50.5 98.7 52.4 98.7 57.1C98.7 63.2 103.3 66.9 92.1 68.8C82.6 70.4 79.6 82.3 93.7 89.2C109.3 96.9 132.9 86.1 130 75.8C125.6 59.9 133.5 59.9 132.6 51.1C132 44.6 138.1 44.3 135.9 38.9C133 31.7 112.7 25.5 113.4 38Z" fill="black"/>
<path d="M103.6 49.9C102.4 43.7 103.1 39.7 105.5 37.8C108.6 35.3 113.4 37.5 113.6 37.6L113.2 38.5C113.2 38.5 108.7 36.5 106.1 38.6C104 40.3 103.5 44 104.6 49.8L103.6 49.9Z" fill="#263238"/>
<path d="M94 66.9C90.9 66.9 87.8 65.7 87.6 65.6L88 64.7C88.1 64.7 94.8 67.4 97.9 64.8C99.4 63.5 99.9 61.2 99.2 57.8L100.2 57.6C100.9 61.4 100.4 64.1 98.6 65.6C97.3 66.6 95.6 66.9 94 66.9Z" fill="#263238"/>
<path d="M130.4 50.3C130.3 51.8 130.8 53.5 131.6 54.8C132.8 56.7 134.3 56.3 134.8 54.7C135.3 53.3 135.2 50.5 133.7 49.2C132.1 47.8 130.5 48.6 130.4 50.3Z" fill="#B55B52"/>
<path d="M121.5 128.1C121.5 128.1 108 185.1 101.7 217.8C95.1 252.3 55.7 280.5 55.7 280.5L47.1 271.6C47.1 271.6 72.4 249.4 79 217.2C92.2 151.8 83.3 138.6 96 124.7L121.5 128.1Z" fill="black"/>
<path d="M56.5 281.7L45.7 270.6L48.8 267.4L61.3 278.4L56.5 281.7Z" fill="#3DBBED"/>
<path opacity="0.2" d="M114.4 140.4C103.9 149.5 105.1 181.8 106.2 196.3C110.6 175.6 115.9 152.6 119 139.2C117.8 138.5 116.3 138.8 114.4 140.4Z" fill="black"/>
<path d="M130.2 129.3C130.2 129.3 136.3 196.9 133 222.7C129.6 249.5 112 307.9 112 307.9L99.6 306.3C99.6 306.3 109.6 248.4 111.4 221.9C113.3 192.9 104.7 125.9 104.7 125.9L130.2 129.3Z" fill="black"/>
<path d="M114.6 308.7L97 306.4L97.3 301.2L116.4 303L114.6 308.7Z" fill="#3DBBED"/>
<path d="M95.7 122.5L93.8 125.4C93.7 125.6 93.9 125.9 94.3 126L130.7 130.9C131 130.9 131.3 130.8 131.3 130.6L131.9 127.6C131.9 127.4 131.7 127.2 131.3 127.1L96.1 122.4C96 122.3 95.8 122.4 95.7 122.5Z" fill="#3DBBED"/>
<path d="M95.7 122.5L93.8 125.4C93.7 125.6 93.9 125.9 94.3 126L130.7 130.9C131 130.9 131.3 130.8 131.3 130.6L131.9 127.6C131.9 127.4 131.7 127.2 131.3 127.1L96.1 122.4C96 122.3 95.8 122.4 95.7 122.5Z" fill="white"/>
<path d="M100 127.1L99.1 127C98.9 127 98.8 126.9 98.8 126.7L99.7 122.8C99.7 122.7 99.9 122.6 100.1 122.6L101 122.7C101.2 122.7 101.3 122.8 101.3 123L100.4 126.9C100.4 127 100.2 127.1 100 127.1Z" fill="black"/>
<path d="M123.8 130.3L122.9 130.2C122.7 130.2 122.6 130.1 122.6 129.9L123.5 126C123.5 125.9 123.7 125.8 123.9 125.8L124.8 125.9C125 125.9 125.1 126 125.1 126.2L124.2 130.1C124.1 130.3 124 130.3 123.8 130.3Z" fill="black"/>
</g>
<defs>
<clipPath id="clip0_1_124">
<rect width="284.5" height="327" fill="white" transform="translate(32 0.900024)"/>
</clipPath>
</defs>
</svg>
