<svg width="424" height="347" viewBox="0 0 424 347" fill="none" xmlns="http://www.w3.org/2000/svg">
<g filter="url(#filter0_d_1_209)">
<path opacity="0.18" d="M65.0004 55.9719C45.242 66.3559 27.7375 81.28 17.7457 100.209C7.7538 119.137 6.05093 140.185 4.99916 160.953C3.94738 184.235 4.07259 207.518 10.2079 230.102C15.8925 250.893 26.5856 270.218 38.5808 288.541C47.3957 301.998 57.3374 315.409 71.5614 324C81.9936 329.847 93.5255 333.797 105.544 335.642C146.135 342.946 188.184 337.594 225.171 320.415C252.717 307.563 276.657 288.401 305.731 279.298C331.249 271.312 359.898 271.289 382.887 258.344C411.535 242.046 424.657 207.262 417.645 176.738C410.633 146.215 385.967 120.86 356.066 106.611C339.113 98.5557 320.782 93.8992 303.703 86.3789C286.624 78.8587 271.023 68.5678 254.37 60.2094C194.869 30.2913 124.951 24.4474 65.0004 55.9719Z" fill="#A0A0A0"/>
<g clip-path="url(#clip0_1_209)">
<path d="M272.698 36.3C272.698 16.7 256.798 0.900024 237.298 0.900024C217.798 0.900024 201.898 16.8 201.898 36.3C201.898 52.5 212.698 66.1 227.498 70.4L237.398 80.3L247.298 70.4C261.898 66.1 272.698 52.5 272.698 36.3Z" fill="#F7D916"/>
<path opacity="0.6" d="M238.998 12.6H235.598V59.4H238.998C251.898 59.4 262.398 48.9 262.398 36C262.398 23.1 251.898 12.6 238.998 12.6Z" fill="#FAFAFA"/>
<path d="M235.598 59.4C248.522 59.4 258.998 48.9235 258.998 36C258.998 23.0766 248.522 12.6 235.598 12.6C222.675 12.6 212.198 23.0766 212.198 36C212.198 48.9235 222.675 59.4 235.598 59.4Z" fill="#FAFAFA"/>
<path opacity="0.2" d="M248.898 23.6C245.698 20.6 241.298 18.7 236.498 18.7C226.498 18.7 218.398 26.8 218.398 36.9C218.398 41.6 220.198 45.9 223.098 49.1C219.598 45.8001 217.498 41.1 217.498 36C217.498 26 225.598 17.8 235.598 17.8C240.798 17.9 245.498 20.1 248.898 23.6Z" fill="#407BFF"/>
<path d="M242.498 31.1L237.998 31.8C237.798 31.2 237.598 30.8 237.398 30.6C237.198 30.4 236.898 30.2 236.498 29.9V33.4C238.898 34 240.598 34.7 241.398 35.5C242.498 36.5 242.998 37.7 242.998 39.2C242.998 40.1 242.798 40.9 242.398 41.6C241.998 42.3 241.498 42.9 240.898 43.4C240.298 43.9 239.698 44.2 238.998 44.5C238.298 44.7 237.498 44.9 236.498 44.9V45.5C236.498 46 236.098 46.4 235.598 46.4C235.098 46.4 234.698 46 234.698 45.5V44.9C233.498 44.8 232.598 44.6 231.798 44.3C231.098 44 230.398 43.6 229.898 43.2C229.398 42.7 228.998 42.2 228.698 41.6C228.398 41 228.198 40.4 228.098 39.6L232.998 39C233.098 39.8 233.298 40.4 233.598 40.7C233.798 41.1 234.198 41.4 234.798 41.6V37.4C233.198 37 231.998 36.6 231.398 36.2C230.698 35.9 230.098 35.3 229.598 34.6C229.098 33.9 228.898 33 228.898 31.9C228.898 30.5 229.398 29.3 230.398 28.3C231.398 27.3 232.898 26.8 234.898 26.7V26.4C234.898 25.9 235.298 25.5 235.798 25.5C236.298 25.5 236.698 25.9 236.698 26.4V26.7C238.498 26.8 239.898 27.2 240.798 28C241.598 28.8 242.198 29.8 242.498 31.1ZM234.798 29.9C234.298 30.1 233.898 30.3 233.698 30.5C233.498 30.7 233.398 31 233.398 31.4C233.398 31.8 233.498 32.1 233.698 32.3C233.898 32.6 234.298 32.8 234.798 33V29.9ZM236.498 41.8C237.198 41.6 237.698 41.4 237.998 41C238.298 40.7 238.498 40.3 238.498 39.8C238.498 39.4 238.398 39.1 238.098 38.8C237.798 38.5 237.298 38.2 236.498 37.9V41.8Z" fill="#F7D916"/>
<path d="M154.998 67.9C157.498 56.9 152.098 50.8 143.698 47.3C135.398 43.8 118.498 45.3 120.098 60C120.398 63.1 121.098 65.5 122.098 67.3C118.198 72.9 119.098 81.5 126.598 83.3C135.098 85.3 154.498 82.8 160.298 79.5C156.498 80.3 152.998 76.6 154.998 67.9Z" fill="black"/>
<path d="M160.598 78.6C159.498 78.6 158.398 78.2 157.598 77.4C156.398 76.3 154.598 73.5 155.698 66.9C157.298 57.3 153.298 50.9 143.298 47.3C143.198 47.3 143.198 47.2 143.198 47.1C143.198 47 143.298 47 143.398 47C153.398 50.7 157.498 57.2 155.898 67C154.798 73.4 156.598 76.2 157.698 77.2C158.798 78.2 160.198 78.6 161.598 78.2C161.698 78.2 161.698 78.2 161.798 78.3C161.798 78.4 161.798 78.4 161.698 78.5C161.298 78.6 160.898 78.6 160.598 78.6Z" fill="black"/>
<path d="M125.398 82.7C122.598 82.4 120.398 80.5 119.398 77.6C118.398 74.5 118.798 70.1 122.098 67.1C122.098 67.1 122.198 67.1 122.298 67.1C122.298 67.2 122.298 67.2 122.298 67.3C119.098 70.2 118.598 74.5 119.598 77.6C120.498 80.5 122.598 82.3 125.398 82.5C125.498 82.5 125.498 82.6 125.498 82.6C125.498 82.6 125.498 82.7 125.398 82.7Z" fill="black"/>
<path d="M163.398 103.9C163.598 106.3 163.898 108.9 164.298 111.4C164.698 113.9 164.998 116.4 165.498 118.9C166.498 123.9 167.698 128.8 169.298 133.4L169.998 135.1L170.298 135.9C170.298 135.9 170.298 135.9 170.198 135.9C170.098 135.8 169.598 135.5 169.498 135.6C169.398 135.6 169.598 135.7 169.898 135.6C170.598 135.5 171.598 135 172.498 134.5C173.498 134 174.498 133.3 175.498 132.6C177.498 131.2 179.498 129.6 181.398 127.9C183.298 126.2 185.298 124.5 187.098 122.7L190.398 125.5C187.298 129.9 183.798 134 179.698 137.8C178.598 138.7 177.498 139.7 176.298 140.5C174.998 141.4 173.698 142.2 171.898 142.8C170.998 143.1 169.798 143.3 168.398 143.2C167.698 143.1 166.898 142.9 166.198 142.5C165.498 142.1 164.798 141.6 164.298 141C163.798 140.4 163.398 139.9 163.198 139.3C163.098 139.1 163.098 139.1 163.098 139L162.998 138.8L162.798 138.3L161.898 136.4C159.798 131.2 158.198 126 157.098 120.6C156.498 117.9 155.998 115.3 155.598 112.6C155.198 109.9 154.898 107.3 154.698 104.4L163.398 103.9Z" fill="#FFC3BD"/>
<path d="M160.098 94.1C163.098 94.9 164.798 114.9 164.798 114.9L156.698 119.7C156.698 119.7 151.798 104.9 152.598 98.5C153.198 93.9 157.798 93.5 160.098 94.1Z" fill="#FFC3BD"/>
<path d="M186.998 122.2L191.598 114.9L194.198 123.2C194.198 123.2 190.398 127.2 186.998 126.2V122.2Z" fill="#FFC3BD"/>
<path d="M198.498 112.4L200.298 119.5L194.298 123.2L191.698 114.9L198.498 112.4Z" fill="#FFC3BD"/>
<path d="M142.898 329.5H151.498L155.098 298H143.298L142.898 329.5Z" fill="#FFC3BD"/>
<path d="M88.9984 317.9L97.2984 320.1L110.098 291.2L98.5984 287.9L88.9984 317.9Z" fill="#FFC3BD"/>
<path d="M98.6984 318.7L89.7984 314.9C89.4984 314.8 89.0984 314.9 88.8984 315.2L84.8984 321.8C84.4984 322.5 84.7984 323.4 85.5984 323.7C88.6984 325 90.2984 325.4 94.1984 327.1C96.5984 328.1 99.9984 329.9 103.298 331.3C106.498 332.7 108.198 329.5 106.898 328.6C101.298 324.6 101.098 322.4 99.6984 319.8C99.4984 319.3 99.0984 318.9 98.6984 318.7Z" fill="#263238"/>
<path d="M151.798 328.5H142.198C141.798 328.5 141.598 328.7 141.498 329.1L140.398 336.7C140.298 337.5 140.998 338.2 141.798 338.2C145.198 338.1 146.798 337.9 150.998 337.9C153.598 337.9 158.998 338.2 162.598 338.2C166.098 338.2 166.398 334.6 164.898 334.3C158.198 332.9 155.498 330.9 153.298 329C152.798 328.7 152.298 328.5 151.798 328.5Z" fill="#263238"/>
<path d="M160.698 94C160.698 94 164.798 95.4 156.598 145.8C142.798 145.8 128.498 145.8 121.798 145.8C122.398 131.6 122.398 122.9 115.598 93.8C115.598 93.8 122.898 92.2 130.398 91.9C136.298 91.6 141.098 91.4 146.198 91.9C152.998 92.5 160.698 94 160.698 94Z" fill="black"/>
<path d="M131.898 74C132.898 79.1 133.898 88.4 130.298 91.8C130.298 91.8 135.798 98.1 145.598 103.6C150.498 95.6 146.098 91.8 146.098 91.8C140.398 90.4 140.598 86.2 141.598 82.3L131.898 74Z" fill="#FFC3BD"/>
<path opacity="0.2" d="M135.898 77.4L141.598 82.3C141.398 83.2 141.198 84.2 141.098 85.1C138.898 84.8 135.998 82.4 135.698 80.1C135.598 79 135.698 77.9 135.898 77.4Z" fill="black"/>
<path d="M126.498 64.7C128.498 73 129.198 76.5 134.198 80.1C141.698 85.4 151.398 81.2 151.898 72.5C152.398 64.7 148.998 52.4 140.198 50.6C131.598 48.6 124.498 56.4 126.498 64.7Z" fill="#FFC3BD"/>
<path d="M156.598 145.8C156.598 145.8 163.398 211.9 162.798 238.1C162.198 265.3 156.698 299 156.698 299H141.798C141.798 299 142.398 266.9 141.398 240.2C140.298 211.1 130.998 145.9 130.998 145.9H156.598V145.8Z" fill="#407BFF"/>
<path d="M140.498 300.4H157.398L158.598 296.1L139.698 295.6L140.498 300.4Z" fill="#263238"/>
<path opacity="0.2" d="M141.498 162.3C150.098 179.5 143.198 210.9 140.198 222.6C138.598 205.1 135.998 183.6 133.998 167.8C135.298 158.9 137.598 154.3 141.498 162.3Z" fill="black"/>
<path d="M147.398 145.8C147.398 145.8 139.498 214.5 133.498 236.6C126.398 262.8 111.998 291.7 111.998 291.7L96.9984 287.5C96.9984 287.5 105.398 252.2 110.798 238.4C122.298 209 112.498 165.1 121.698 145.9H147.398V145.8Z" fill="#3DBBED"/>
<path d="M96.0984 289.7L111.598 294L114.398 290.1L97.1984 284.3L96.0984 289.7Z" fill="#263238"/>
<path d="M141.525 65.9865C141.96 65.9094 142.211 65.2738 142.086 64.5668C141.961 63.8598 141.506 63.3492 141.071 63.4262C140.636 63.5033 140.385 64.1389 140.51 64.8459C140.636 65.5529 141.09 66.0635 141.525 65.9865Z" fill="black"/>
<path d="M149.219 64.5873C149.654 64.5103 149.905 63.8747 149.78 63.1677C149.655 62.4607 149.201 61.9501 148.765 62.0271C148.33 62.1042 148.079 62.7398 148.204 63.4467C148.33 64.1537 148.784 64.6644 149.219 64.5873Z" fill="black"/>
<path d="M148.598 62.2L150.198 61.4C150.198 61.4 149.598 62.9 148.598 62.2Z" fill="black"/>
<path d="M145.998 64.9C145.998 64.9 147.698 67.6 149.198 68.8C148.398 69.8 146.898 69.7 146.898 69.7L145.998 64.9Z" fill="#ED847E"/>
<path d="M143.298 73C143.698 73 144.098 73 144.498 72.9C144.598 72.9 144.698 72.8 144.698 72.7C144.698 72.6 144.598 72.5 144.498 72.5C141.498 73 139.698 71.2 139.698 71.2C139.598 71.1 139.498 71.1 139.398 71.2C139.298 71.3 139.298 71.4 139.398 71.5C139.398 71.5 140.798 73 143.298 73Z" fill="black"/>
<path d="M136.498 48.9C141.798 50.3 144.898 51 146.598 52.6C151.598 57 133.098 57.6 133.598 58.3C136.298 68.4 129.498 76 125.598 67.6C121.698 59.2 118.898 55.2 125.298 51.7C131.698 48.2 136.498 48.9 136.498 48.9Z" fill="black"/>
<path d="M126.198 70.9C126.898 72.5 128.198 73.7 129.598 74.3C131.598 75.1 132.898 73.4 132.498 71.3C132.198 69.5 130.698 66.8 128.598 66.9C126.498 66.9 125.398 69.1 126.198 70.9Z" fill="#FFC3BD"/>
<path d="M137.498 60.3C137.598 60.3 137.698 60.3 137.798 60.2C138.998 58.9 140.498 59.1 140.498 59.1C140.698 59.1 140.898 59 140.998 58.8C140.998 58.6 140.898 58.4 140.698 58.3C140.598 58.3 138.798 58 137.198 59.6C136.998 59.8 137.098 60 137.198 60.2C137.298 60.3 137.398 60.3 137.498 60.3Z" fill="black"/>
<path d="M150.098 59.3C150.198 59.3 150.298 59.3 150.398 59.2C150.598 59 150.598 58.8 150.398 58.6C148.798 57 146.998 57.3 146.898 57.3C146.698 57.3 146.498 57.6 146.598 57.8C146.598 58 146.898 58.2 147.098 58.1C147.198 58.1 148.598 57.9 149.798 59.1C149.898 59.2 149.998 59.3 150.098 59.3Z" fill="black"/>
<path d="M119.898 106.3C118.198 110.8 116.498 115.6 114.998 120.2C113.598 124.9 112.298 129.6 111.598 134.3C111.498 134.9 111.398 135.5 111.398 136L111.298 136.9V137.3C111.198 137.4 111.498 138.3 111.998 139.2C112.998 140.9 114.498 142.8 116.098 144.6C119.298 148.2 122.998 151.6 126.698 155L124.198 158.5C119.698 155.9 115.498 152.9 111.398 149.4C109.398 147.6 107.398 145.8 105.698 143.2C104.798 141.9 103.898 140.5 103.498 138.1C103.498 137.8 103.398 137.5 103.398 137.1C103.398 136.9 103.398 136.9 103.398 136.8V136.5V135.5C103.398 134.8 103.498 134.1 103.498 133.4C103.998 128 105.198 122.8 106.598 117.8C107.998 112.8 109.698 107.9 111.698 103L119.898 106.3Z" fill="#FFC3BD"/>
<path d="M115.598 93.8C112.198 95.2 107.898 113.9 107.898 113.9L115.198 119.9C115.198 119.9 121.998 106 122.298 99.5C122.498 94.6 118.598 92.6 115.598 93.8Z" fill="#FFC3BD"/>
<path d="M102.598 321.4C102.898 321.3 103.098 321 103.198 320.6C103.298 320.3 103.198 320 103.098 319.9C102.398 319.1 99.2984 319.6 98.9984 319.7C98.8984 319.7 98.8984 319.8 98.7984 319.9C98.7984 320 98.7984 320.1 98.8984 320.1C99.7984 320.8 101.498 321.9 102.498 321.5C102.498 321.4 102.498 321.4 102.598 321.4ZM99.3984 320C100.598 319.8 102.298 319.7 102.698 320.2C102.698 320.3 102.798 320.3 102.798 320.5C102.698 320.8 102.598 321 102.298 321.1C101.798 321.3 100.698 320.9 99.3984 320Z" fill="#407BFF"/>
<path d="M100.298 319.6C101.198 319.2 102.098 318.5 102.198 317.9C102.198 317.7 102.198 317.4 101.798 317.1C101.498 316.9 101.198 316.9 100.898 317C99.6984 317.4 98.6984 319.7 98.6984 319.8C98.6984 319.9 98.6984 319.9 98.6984 320C98.6984 320.1 98.7984 320.1 98.8984 320.1C99.2984 320.1 99.7984 319.9 100.298 319.6ZM100.898 317.5H100.998C101.198 317.4 101.398 317.5 101.598 317.6C101.798 317.7 101.798 317.9 101.798 318C101.698 318.6 100.198 319.5 99.1984 319.8C99.5984 318.9 100.298 317.8 100.898 317.5Z" fill="#407BFF"/>
<path d="M154.998 330C155.898 330 156.598 329.9 157.098 329.5C157.398 329.2 157.498 328.9 157.498 328.5C157.498 328.3 157.398 328.1 157.198 328C156.098 327.4 152.698 329.2 152.298 329.4C152.198 329.4 152.198 329.5 152.198 329.6C152.198 329.7 152.298 329.8 152.398 329.8C152.998 329.8 154.098 330 154.998 330ZM156.498 328.2C156.698 328.2 156.798 328.2 156.898 328.3C156.998 328.3 156.998 328.4 156.998 328.5C156.998 328.8 156.898 329 156.798 329.2C156.298 329.7 154.898 329.8 152.998 329.4C154.098 328.8 155.698 328.2 156.498 328.2Z" fill="#407BFF"/>
<path d="M152.298 329.7C152.398 329.7 152.398 329.7 152.298 329.7C153.398 329.2 155.398 327.4 155.298 326.4C155.298 326.2 155.098 325.9 154.498 325.8C154.098 325.8 153.698 325.9 153.398 326.2C152.298 327.1 152.098 329.4 152.098 329.5C152.098 329.6 152.098 329.6 152.198 329.7C152.298 329.7 152.298 329.7 152.298 329.7ZM154.398 326.2H154.498C154.898 326.2 154.898 326.4 154.898 326.4C154.998 327 153.598 328.4 152.598 329.1C152.698 328.4 152.998 327 153.698 326.5C153.898 326.3 154.098 326.2 154.398 326.2Z" fill="#407BFF"/>
<path d="M121.198 143.8L120.298 146.9C120.198 147.1 120.498 147.4 120.898 147.4H156.798C157.098 147.4 157.398 147.2 157.398 147L157.698 143.9C157.698 143.7 157.398 143.5 157.098 143.5H121.798C121.498 143.5 121.298 143.6 121.198 143.8Z" fill="#407BFF"/>
<path d="M121.198 143.8L120.298 146.9C120.198 147.1 120.498 147.4 120.898 147.4H156.798C157.098 147.4 157.398 147.2 157.398 147L157.698 143.9C157.698 143.7 157.398 143.5 157.098 143.5H121.798C121.498 143.5 121.298 143.6 121.198 143.8Z" fill="white"/>
<path d="M125.898 147.7H124.998C124.798 147.7 124.698 147.6 124.698 147.5L125.098 143.4C125.098 143.3 125.298 143.2 125.498 143.2H126.398C126.598 143.2 126.698 143.3 126.698 143.4L126.298 147.5C126.298 147.6 126.098 147.7 125.898 147.7Z" fill="#3DBBED"/>
<path d="M154.098 147.7H153.198C152.998 147.7 152.898 147.6 152.898 147.5L153.298 143.4C153.298 143.3 153.498 143.2 153.698 143.2H154.598C154.798 143.2 154.898 143.3 154.898 143.4L154.498 147.5C154.398 147.6 154.298 147.7 154.098 147.7Z" fill="#407BFF"/>
<path d="M139.998 147.7H139.098C138.898 147.7 138.798 147.6 138.798 147.5L139.198 143.4C139.198 143.3 139.398 143.2 139.598 143.2H140.498C140.698 143.2 140.798 143.3 140.798 143.4L140.398 147.5C140.398 147.6 140.198 147.7 139.998 147.7Z" fill="#407BFF"/>
<path d="M123.598 205.5L166.198 206.2L159.098 145.8L161.098 118.7L156.298 113.8C156.798 96.8 154.298 92.6 154.298 92.6L150.898 92.1C153.898 96.5 153.398 108.7 152.898 112.9C145.798 111.6 135.798 112.9 135.798 112.9C135.298 100.6 127.598 91.6 127.598 91.6C127.598 91.6 126.698 91.7 124.598 92.1C131.398 99.9 132.798 113.8 132.798 113.8L125.498 120.4L126.498 126.8C125.798 127 123.998 127.4 121.398 127.1L121.498 129.9C121.498 129.9 124.398 130.6 126.798 129.4L129.298 145.5L123.598 205.5Z" fill="white"/>
<path d="M125.698 154.1L134.898 154.9L128.698 161.1C128.698 161.1 123.398 159.6 122.698 156.1L125.698 154.1Z" fill="#FFC3BD"/>
<path d="M140.198 159.8L134.798 164.7L127.398 160.6L134.898 154.9L140.198 159.8Z" fill="#FFC3BD"/>
<path d="M140.898 63.5L142.498 62.7C142.498 62.8 141.898 64.2 140.898 63.5Z" fill="black"/>
<path d="M237.598 160.5H75.4984V339H244.798V167.8C244.798 163.7 241.598 160.5 237.598 160.5Z" fill="#3DBBED"/>
<path opacity="0.3" d="M115.098 160.5H75.4984V339H115.098V160.5Z" fill="black"/>
<path opacity="0.3" d="M244.798 166H75.4984V171.5H244.798V166Z" fill="black"/>
<path d="M240.498 160.5H75.4984V167.9H247.898C247.898 163.8 244.598 160.5 240.498 160.5Z" fill="black"/>
<path d="M196.498 135.7H171.598C157.898 135.7 146.798 146.8 146.798 160.5H196.498V135.7Z" fill="#407BFF"/>
<path d="M196.498 135.7H171.598C157.898 135.7 146.798 146.8 146.798 160.5H196.498V135.7Z" fill="#3DBBED"/>
<path d="M196.498 160.5H225.498V136.6C225.498 136.1 225.098 135.7 224.598 135.7H196.498V160.5Z" fill="#407BFF"/>
<path d="M196.498 160.5H225.498V136.6C225.498 136.1 225.098 135.7 224.598 135.7H196.498V160.5Z" fill="#3DBBED"/>
<path d="M189.098 132.4H220.098C221.898 132.4 223.398 133.9 223.398 135.7H185.798C185.698 133.9 187.198 132.4 189.098 132.4Z" fill="#3DBBED"/>
<path opacity="0.3" d="M189.098 132.4C188.198 132.4 187.298 132.8 186.798 133.4C186.198 134 185.798 134.8 185.798 135.8H195.998C195.998 134.9 196.398 134 196.998 133.4C197.598 132.8 198.398 132.4 199.398 132.4H189.098Z" fill="black"/>
<path d="M230.898 112.4L241.298 125.8C241.698 126.3 242.498 126.4 242.998 126L249.498 120.9C249.998 120.5 250.098 119.7 249.698 119.2L239.298 105.8C238.898 105.3 238.098 105.2 237.598 105.6L231.098 110.7C230.598 111.1 230.498 111.9 230.898 112.4Z" fill="#3DBBED"/>
<path d="M234.539 108.078L246.424 123.285L248.63 121.56L236.745 106.354L234.539 108.078Z" fill="black"/>
<path d="M232.667 112.015L236.424 116.821L238.63 115.097L234.874 110.291L232.667 112.015Z" fill="white"/>
<path d="M342.098 99.3C342.398 99.7 342.498 99.9 342.598 100.1L342.998 100.8C343.298 101.3 343.498 101.8 343.798 102.3C344.298 103.3 344.798 104.3 345.198 105.3C346.098 107.3 346.798 109.3 347.398 111.4C348.598 115.5 349.398 119.7 349.798 123.9L349.898 124.7C349.898 124.8 349.898 125 349.898 125.2V125.7C349.898 126.4 349.898 127.1 349.798 127.8C349.598 129.1 349.298 130.4 348.798 131.5C347.898 133.8 346.698 135.7 345.298 137.5C342.598 141 339.498 143.8 335.998 146.3L333.198 143.1C335.698 140.2 338.098 137.1 339.798 133.9C340.698 132.3 341.398 130.7 341.798 129.2C341.998 128.4 342.098 127.7 342.098 127.1C342.098 126.8 342.098 126.5 342.098 126.2V126C342.098 125.9 342.098 125.9 342.098 125.7L341.998 125C341.298 121.2 340.498 117.6 339.298 114C338.698 112.2 337.998 110.5 337.298 108.8C336.898 107.9 336.498 107.1 336.098 106.3L335.498 105.1L335.198 104.5L334.898 104.1L342.098 99.3Z" fill="#FF8B7B"/>
<path d="M332.798 146.5L336.398 154.1L339.298 147.6C339.298 147.6 336.798 142 333.298 142.5L332.798 146.5Z" fill="#FF8B7B"/>
<path d="M342.198 154.1L344.998 149.4L339.298 147.6L336.398 154.1H342.198Z" fill="#FF8B7B"/>
<path d="M322.698 330.9C323.498 330.9 324.298 330.7 324.898 330.6C324.998 330.6 324.998 330.5 324.998 330.4C324.998 330.3 324.998 330.2 324.898 330.2C324.598 330 322.098 328.4 321.098 328.8C320.898 328.9 320.798 329 320.698 329.4C320.598 329.8 320.698 330.2 320.998 330.5C321.498 330.8 322.098 330.9 322.698 330.9ZM324.398 330.3C322.898 330.6 321.798 330.5 321.398 330.2C321.198 330 321.198 329.8 321.198 329.5C321.198 329.3 321.298 329.3 321.398 329.2C321.898 329 323.398 329.7 324.398 330.3Z" fill="#3DBBED"/>
<path d="M324.898 330.6C324.898 330.6 324.998 330.6 324.898 330.6C325.098 330.5 325.098 330.5 325.098 330.4C325.098 330.3 325.098 327.9 324.198 327.1C323.998 326.9 323.698 326.8 323.398 326.8C322.898 326.9 322.798 327.2 322.698 327.4C322.498 328.3 323.998 330.1 324.898 330.6C324.798 330.6 324.898 330.6 324.898 330.6ZM323.498 327.2C323.698 327.2 323.798 327.3 323.898 327.4C324.398 327.9 324.598 329.2 324.698 330C323.898 329.4 322.998 328 323.098 327.4C323.098 327.4 323.098 327.3 323.498 327.2C323.398 327.2 323.498 327.2 323.498 327.2Z" fill="#3DBBED"/>
<path d="M270.598 327.2C270.698 327.2 270.698 327.2 270.798 327.1C270.798 327 270.798 326.9 270.798 326.9C270.498 326.6 268.198 323.8 266.998 323.8H266.898C266.698 323.8 266.498 323.9 266.398 324.2C266.198 324.6 266.198 324.9 266.398 325.2C266.898 326.3 269.198 326.9 270.598 327.2ZM266.998 324.2C267.698 324.2 269.098 325.6 270.098 326.7C268.298 326.3 266.998 325.7 266.698 325.1C266.598 324.9 266.598 324.7 266.698 324.4C266.798 324.3 266.798 324.2 266.998 324.2C266.898 324.2 266.998 324.2 266.998 324.2Z" fill="#3DBBED"/>
<path d="M270.598 327.2C270.698 327.2 270.798 327.1 270.798 327.1C270.798 327 271.498 324.9 270.898 323.6C270.698 323.2 270.398 323 269.998 322.9C269.498 322.7 269.198 322.9 269.098 323.1C268.598 323.9 269.698 326.3 270.498 327.1C270.498 327.2 270.498 327.2 270.598 327.2ZM269.598 323.2C269.698 323.2 269.698 323.2 269.798 323.2C270.098 323.3 270.298 323.5 270.398 323.7C270.798 324.5 270.598 325.9 270.398 326.5C269.698 325.5 268.998 323.7 269.298 323.2C269.398 323.3 269.498 323.2 269.598 323.2Z" fill="#3DBBED"/>
<path d="M324.298 70C323.298 75 321.098 85.8 324.598 89.1C324.598 89.1 323.198 94.1 313.998 94.1C303.798 94.1 309.098 89.1 309.098 89.1C314.598 87.8 314.498 83.7 313.498 79.8L324.298 70Z" fill="#FF8B7B"/>
<path d="M307.398 58.3C307.498 58.3 307.498 58.3 307.598 58.3C307.798 58.2 307.898 58 307.798 57.8C306.798 55.8 304.998 55.6 304.898 55.6C304.698 55.6 304.498 55.7 304.498 55.9C304.498 56.1 304.598 56.3 304.798 56.3C304.898 56.3 306.298 56.5 307.098 58.1C307.098 58.2 307.198 58.3 307.398 58.3Z" fill="black"/>
<path d="M304.398 62.6C304.398 62.6 302.898 65.3 301.498 66.6C302.298 67.5 303.798 67.3 303.798 67.3L304.398 62.6Z" fill="#FF5652"/>
<path d="M305.123 61.5839C305.205 60.9262 304.915 60.3491 304.477 60.2948C304.038 60.2406 303.617 60.7298 303.536 61.3875C303.454 62.0452 303.744 62.6223 304.182 62.6766C304.621 62.7308 305.042 62.2416 305.123 61.5839Z" fill="black"/>
<path d="M304.598 60.3L302.998 59.6C303.098 59.7 303.798 61 304.598 60.3Z" fill="black"/>
<path d="M279.498 330.4L271.298 328.5L275.098 309.4L283.298 311.3L279.498 330.4Z" fill="#FF8B7B"/>
<path d="M334.598 330.4H326.298L326.898 311H335.298L334.598 330.4Z" fill="#FF8B7B"/>
<path d="M325.598 329.4H334.998C335.298 329.4 335.598 329.6 335.698 330L336.798 337.4C336.898 338.2 336.198 338.9 335.498 338.9C332.198 338.8 330.598 338.7 326.498 338.7C323.998 338.7 320.198 339 316.698 339C313.298 339 312.998 335.5 314.498 335.2C321.098 333.8 322.098 331.8 324.298 330C324.598 329.6 325.098 329.4 325.598 329.4Z" fill="black"/>
<path d="M271.498 326.3L280.198 329.9C280.498 330 280.698 330.4 280.598 330.7L278.698 338C278.498 338.8 277.598 339.2 276.898 338.9C273.898 337.6 272.498 336.8 268.698 335.2C266.298 334.2 261.398 332.4 258.098 331.1C254.898 329.8 255.998 326.5 257.498 326.7C264.098 327.9 267.198 327.1 269.998 326.2C270.498 326.1 270.998 326.1 271.498 326.3Z" fill="black"/>
<path opacity="0.2" d="M275.098 309.5L273.098 319.6L281.298 321.1L283.298 311.3L275.098 309.5Z" fill="black"/>
<path opacity="0.2" d="M335.298 311H326.898L326.598 321H334.998L335.298 311Z" fill="black"/>
<path d="M339.098 91.1C342.598 91.9 346.298 104.4 346.298 104.4L336.498 114.9C336.498 114.9 328.298 103.1 329.998 98.8C331.698 94.2 334.998 90.2 339.098 91.1Z" fill="#E82E87"/>
<path opacity="0.4" d="M333.598 99C331.798 97.4 330.698 97.9 329.798 99.1C328.998 102.8 333.698 110.6 335.698 113.6C336.498 110.1 337.498 102.7 333.598 99Z" fill="black"/>
<path d="M294.998 91.3C294.998 91.3 290.998 92.7 298.998 141.9C312.498 141.9 326.498 141.9 332.998 141.9C332.398 128.1 332.398 119.5 338.998 91.1C338.998 91.1 331.898 89.5 324.598 89.2C318.898 88.9 314.198 88.7 309.198 89.2C302.498 89.8 294.998 91.3 294.998 91.3Z" fill="#E82E87"/>
<path d="M304.598 88.1C305.898 87.4 316.498 85.3 324.398 85.6C328.898 85.8 331.498 86.4 333.398 87.5C335.398 88.6 332.698 94.6 331.298 95.4C332.198 97.6 329.098 100.6 327.298 102C326.798 104.1 319.298 106.3 314.298 101.9C310.598 98.5 300.798 90.1 304.598 88.1Z" fill="black"/>
<path opacity="0.4" d="M294.698 110.2C294.898 112.6 295.198 115.3 295.598 118.3C298.398 115.8 300.698 108.7 299.798 104.5C297.898 105.9 296.098 108.2 294.698 110.2Z" fill="black"/>
<path d="M298.298 102.7C296.398 107.5 294.298 112 291.998 116.5C290.798 118.8 289.598 121 288.298 123.2C286.998 125.4 285.498 127.6 283.798 129.7L283.098 130.5L282.898 130.7L282.598 131C282.398 131.2 282.198 131.4 281.998 131.6C281.198 132.3 280.198 132.9 279.198 133.3C277.198 134 275.398 134 273.798 133.8C270.598 133.4 268.098 132.2 265.698 131.1C260.998 128.6 256.898 125.6 253.098 122.2L255.698 118.8C257.698 120 259.898 121.2 261.998 122.3C264.098 123.4 266.298 124.4 268.398 125.2C270.498 126 272.698 126.6 274.498 126.7C275.398 126.7 276.098 126.6 276.398 126.4C276.598 126.3 276.698 126.2 276.698 126.1L277.398 125.1C279.898 121.5 282.098 117.1 284.198 112.8C286.298 108.5 288.298 104 290.098 99.6L298.298 102.7Z" fill="#FF8B7B"/>
<path d="M294.998 91.3001C290.798 92.3001 285.698 103.7 285.698 103.7L294.298 116.4C294.298 116.4 305.798 101.9 304.398 97.5C303.098 92.9 300.098 90.1001 294.998 91.3001Z" fill="#E82E87"/>
<path d="M255.198 122.7L247.298 122.8L249.598 116C249.598 116 255.798 116.8 257.798 119.7L255.198 122.7Z" fill="#FF8B7B"/>
<path d="M241.298 122L242.898 116H249.498L247.298 122.8L241.298 122Z" fill="#FF8B7B"/>
<path d="M327.898 62.1C326.398 70.3 325.898 73.8 321.198 77.5C314.198 83.1 304.498 79.4 303.498 71C302.598 63.4 305.298 51.3 313.698 49C322.098 46.7 329.498 53.9 327.898 62.1Z" fill="#FF8B7B"/>
<path d="M310.198 61.9C308.598 64 297.198 77.1 303.698 82.1C324.098 80.5 329.898 87.6 335.498 77.5C341.198 67.4 341.998 50.1 326.298 47.2C310.698 44.3 302.098 47.9 310.198 61.9Z" fill="black"/>
<path d="M307.098 61.5C305.898 62.7 305.398 64.4 305.398 65.8C305.398 67.9 307.498 68.3 309.098 67.2C310.598 66.2 312.398 63.9 311.498 62C310.698 60.2 308.398 60.1 307.098 61.5Z" fill="#FF8B7B"/>
<path d="M307.998 141.9C307.998 141.9 312.898 199.4 317.898 231.8C321.998 258 325.198 319.1 325.198 319.1H336.598C336.598 319.1 340.698 259.8 338.598 233.9C333.398 168.4 344.998 163.1 332.998 141.9H307.998Z" fill="black"/>
<path opacity="0.4" d="M317.498 161C314.498 165.3 312.498 170.5 311.198 175.8C312.198 185.5 313.298 196.2 314.498 206.6C317.698 198 321.198 180.6 317.498 161Z" fill="black"/>
<path d="M298.998 141.9C298.998 141.9 289.598 206.4 286.198 231.7C282.798 258.1 272.698 317.1 272.698 317.1L283.898 318.8C283.898 318.8 302.998 262.7 306.498 236.8C310.398 208.6 324.998 141.8 324.998 141.8H298.998V141.9Z" fill="black"/>
<path d="M271.098 317.2L285.398 319.6L286.998 314.2L271.698 311.6L271.098 317.2Z" fill="#3DBBED"/>
<path d="M323.598 319.3H338.198L338.898 314.2L323.498 313.7L323.598 319.3Z" fill="#3DBBED"/>
<path d="M333.498 139.9L334.998 142.9C335.098 143.1 334.798 143.4 334.398 143.4H298.698C298.398 143.4 298.098 143.2 298.098 143.1L297.798 140.1C297.798 139.9 297.998 139.7 298.398 139.7H332.798C333.198 139.6 333.498 139.7 333.498 139.9Z" fill="#EBEBEB"/>
<path d="M328.898 143.7H329.798C329.998 143.7 330.098 143.6 330.098 143.5L329.698 139.5C329.698 139.4 329.498 139.3 329.298 139.3H328.398C328.198 139.3 328.098 139.4 328.098 139.5L328.498 143.5C328.598 143.6 328.698 143.7 328.898 143.7Z" fill="black"/>
<path d="M306.598 143.7H307.498C307.698 143.7 307.798 143.6 307.798 143.5L307.398 139.5C307.398 139.4 307.198 139.3 306.998 139.3H306.098C305.898 139.3 305.798 139.4 305.798 139.5L306.198 143.5C306.198 143.6 306.398 143.7 306.598 143.7Z" fill="black"/>
</g>
</g>
<defs>
<filter id="filter0_d_1_209" x="0.498535" y="0.900024" width="423.003" height="346.1" filterUnits="userSpaceOnUse" color-interpolation-filters="sRGB">
<feFlood flood-opacity="0" result="BackgroundImageFix"/>
<feColorMatrix in="SourceAlpha" type="matrix" values="0 0 0 0 0 0 0 0 0 0 0 0 0 0 0 0 0 0 127 0" result="hardAlpha"/>
<feOffset dy="4"/>
<feGaussianBlur stdDeviation="2"/>
<feComposite in2="hardAlpha" operator="out"/>
<feColorMatrix type="matrix" values="0 0 0 0 0 0 0 0 0 0 0 0 0 0 0 0 0 0 0.25 0"/>
<feBlend mode="normal" in2="BackgroundImageFix" result="effect1_dropShadow_1_209"/>
<feBlend mode="normal" in="SourceGraphic" in2="effect1_dropShadow_1_209" result="shape"/>
</filter>
<clipPath id="clip0_1_209">
<rect width="274.5" height="338.1" fill="white" transform="translate(75.4984 0.900024)"/>
</clipPath>
</defs>
</svg>
