<svg width="84" height="84" xmlns="http://www.w3.org/2000/svg" fill="#000000" version="1.1" enable-background="new 0 0 64 64" xml:space="preserve">
 <g>
  <title>Layer 1</title>
  <g id="svg_1">
   <path fill="#fce40c" stroke="#fce40c" d="m0.91916,41.98528l0,0c0,-22.7664 18.45583,-41.22222 41.22226,-41.22222l0,0c10.93282,0 21.41786,4.34304 29.14854,12.07371c7.73067,7.73067 12.07371,18.2157 12.07371,29.14851l0,0c0,22.7664 -18.45583,41.22221 -41.22225,41.22221l0,0c-22.76643,0 -41.22226,-18.45582 -41.22226,-41.22221zm41.22226,-41.22222l0,82.44443m-41.22226,-41.22221l82.44451,0" id="svg_15"/>
   <path fill="#ffff" d="m56.98304,68.64696c-0.553,0 -1,-0.447 -1,-1l0,-20.699c0,-0.553 0.447,-1 1,-1s1,0.447 1,1l0,20.699c0,0.553 -0.447,1 -1,1z" id="svg_3"/>
   <path fill="#ffff" d="m42.09804,45.90096c-2.206,0 -4,-1.794 -4,-4c0,-2.206 1.794,-4 4,-4c2.206,0 4,1.794 4,4c0,2.206 -1.794,4 -4,4zm0,-6c-1.103,0 -2,0.897 -2,2c0,1.103 0.897,2 2,2c1.103,0 2,-0.897 2,-2c0,-1.103 -0.897,-2 -2,-2z" id="svg_4"/>
   <path fill="#ffff" d="m42.09804,39.90096c-0.552,0 -1,-0.448 -1,-1l0,-20.499c0,-0.552 0.448,-1 1,-1s1,0.448 1,1l0,20.499c0,0.552 -0.448,1 -1,1z" id="svg_5"/>
   <path fill="#ffff" d="m39.09804,42.90096l-10.75,0c-0.552,0 -1,-0.448 -1,-1s0.448,-1 1,-1l10.75,0c0.552,0 1,0.448 1,1s-0.448,1 -1,1z" id="svg_6"/>
   <path fill="#ffff" d="m42.09804,71.90196c-16.542,0 -30,-13.458 -30,-30s13.458,-30 30,-30s30,13.458 30,30c0,0.552 -0.447,1 -1,1s-1,-0.448 -1,-1c0,-15.439 -12.561,-28 -28,-28s-28,12.561 -28,28s12.561,28 28,28c0.552,0 1,0.447 1,1s-0.448,1 -1,1z" id="svg_7"/>
   <g id="svg_8">
    <g id="svg_9">
     <path fill="#ffff" d="m57.49404,58.29796c-0.816,0 -1.631,-0.195 -2.354,-0.565c-1.736,-0.888 -2.815,-2.65 -2.815,-4.601c0,-2.851 2.319,-5.169 5.17,-5.169c1.948,0 3.711,1.079 4.6,2.815c0.37,0.726 0.566,1.539 0.566,2.354c0,0.553 -0.447,1 -1,1s-1,-0.447 -1,-1c0,-0.5 -0.12,-0.999 -0.348,-1.443c-0.544,-1.064 -1.624,-1.726 -2.818,-1.726c-1.748,0 -3.17,1.422 -3.17,3.169c0,1.195 0.661,2.275 1.726,2.819c0.45,0.23 0.936,0.347 1.444,0.347c0.553,0 1,0.447 1,1s-0.449,1 -1.001,1z" id="svg_10"/>
     <path fill="#ffff" d="m57.49404,66.63196c-0.815,0 -1.629,-0.196 -2.354,-0.566c-1.736,-0.887 -2.815,-2.649 -2.815,-4.6c0,-0.553 0.447,-1 1,-1s1,0.447 1,1c0,1.195 0.661,2.275 1.726,2.818c0.451,0.23 0.938,0.348 1.444,0.348c1.746,0 3.166,-1.42 3.166,-3.166c0,-0.507 -0.117,-0.993 -0.348,-1.444c-0.544,-1.063 -1.624,-1.725 -2.818,-1.725c-0.553,0 -1,-0.447 -1,-1s0.447,-1 1,-1c1.948,0 3.711,1.078 4.599,2.813c0.371,0.727 0.567,1.54 0.567,2.355c-0.001,2.85 -2.319,5.167 -5.167,5.167z" id="svg_11"/>
    </g>
    <path fill="#ffff" d="m57.49404,71.90196c-8.053,0 -14.604,-6.552 -14.604,-14.604s6.552,-14.604 14.604,-14.604s14.604,6.551 14.604,14.604s-6.552,14.604 -14.604,14.604zm0,-27.209c-6.95,0 -12.604,5.654 -12.604,12.604s5.653,12.605 12.604,12.605s12.604,-5.654 12.604,-12.604s-5.654,-12.605 -12.604,-12.605z" id="svg_12"/>
   </g>
  </g>
 </g>

</svg>